<svg id="Layer_1" data-name="Layer 1" xmlns="http://www.w3.org/2000/svg" viewBox="0 0 800 962"><title>Artboard 1</title><path d="M800,400A398.81,398.81,0,0,1,679.56,686.09c-37.45,36.6-114.09,116.6-169.32,178.33C459.13,921.54,429.08,962,400,962c-29.25,0-61.64-42.15-114.71-102S158.48,722.75,122.52,688.11A398.86,398.86,0,0,1,0,400C0,179.09,179.09,0,400,0S800,179.09,800,400Z" style="fill:#fff"/><circle cx="400" cy="400.5" r="347" style="fill:#006837"/><path d="M400,631.5a231,231,0,1,1,163.34-67.66A229.49,229.49,0,0,1,400,631.5Zm0-418c-103.11,0-187,83.89-187,187s83.89,187,187,187,187-83.89,187-187S503.11,213.5,400,213.5Z" style="fill:#fff"/><polygon points="114.29 403 71.81 352.89 78.16 341 736.86 341 691.03 403 114.29 403" style="fill:#fff"/><path d="M721,349l-34,46H118L79,349H721m14.12-16H79L66.8,359.35l39,46,4.79,5.65H695.07l4.8-6.49,34-46,6.39-8.65Z" style="fill:#006837"/><polygon points="154.29 478 101.73 416 696.86 416 651.03 478 154.29 478" style="fill:#fff"/><path d="M681,424l-34,46H158l-39-46H681m31.72-16H84.46l22.34,26.35,39,46,4.79,5.65H655.07l4.8-6.49,34-46L712.72,408Z" style="fill:#006837"/><polygon points="194.29 553 141.73 491 656.86 491 611.03 553 194.29 553" style="fill:#fff"/><path d="M641,499l-34,46H198l-39-46H641m31.72-16H124.46l22.34,26.35,39,46,4.79,5.65H615.07l4.8-6.49,34-46L672.72,483Z" style="fill:#006837"/><polygon points="392.63 232.65 392.63 232.65 358.96 341 392.63 232.65" style="fill:none"/><polygon points="364.86 349 237.15 349 338.14 424 298.4 545 400 470 502.34 545 464.55 424 564.24 349 437.18 349 399.5 237.5 364.86 349" style="fill:#fff"/><polygon points="570.97 333 564.24 333 448.66 333 414.66 232.38 406.25 232.48 442.92 341 578.58 341 583.45 344.56 473.87 427 512.27 549.96 498.76 552.3 400.02 479.93 299.04 554.47 286.49 555.6 328.74 426.98 212.96 341 358.96 341 392.63 232.65 384.22 232.75 353.07 333 237.15 333 188.76 333 227.61 361.85 319.34 429.97 283.19 540.01 279.55 551.12 307.9 557.87 400.03 489.86 492.88 557.91 521 551 483.19 430 573.86 361.79 593.21 347.23 570.97 333" style="fill:#006837"/><polygon points="395.5 223.42 402.69 221.94 396.8 219.23 392.63 232.65 392.63 232.65 395.5 223.42" style="fill:#006837"/><path d="M392.63,232.65,359,341H213l115.78,86L287.39,552.86,299,554.47l101-74.54,95.69,70.13,16.56-.1-38.4-123,109.58-82.44L578.58,341H442.92L406.25,232.48l-3.57-10.54-7.18,1.48ZM564.24,349l-99.69,75,37.79,121L400,470,298.4,545l39.74-121-101-75H364.86L399.5,237.5,437.18,349Z" style="fill:#006837"/></svg>