<svg id="Layer_1" data-name="Layer 1" xmlns="http://www.w3.org/2000/svg" viewBox="0 0 800 962"><title>Artboard 1 copy</title><path d="M800,400A398.81,398.81,0,0,1,679.56,686.09c-37.45,36.6-114.09,116.6-169.32,178.33C459.13,921.54,429.08,962,400,962c-29.25,0-61.64-42.15-114.71-102S158.48,722.75,122.52,688.11A398.86,398.86,0,0,1,0,400C0,179.09,179.09,0,400,0S800,179.09,800,400Z" style="fill:#fff"/><circle cx="400" cy="400.5" r="347" style="fill:#f15a24"/><polygon points="112 514 146 358 215 290 280 329 330 262 400 226 482 311 497 288 553 263 594 313 637 436 672 478 688 514 450.5 514 445.5 493.5 457.5 461.5 430.5 408.5 412.5 421.5 357.5 392.5 337.5 408.5 323.5 404.5 299.5 453.5 313.5 514.5 112 514" style="fill:#fff"/><polygon points="116.95 518.39 107.05 511.61 202.15 372.92 209.02 289.51 220.98 290.49 213.85 377.08 116.95 518.39" style="fill:#f15a24"/><rect x="139.04" y="455.58" width="136.97" height="12" transform="translate(-294.79 399.95) rotate(-58.8)" style="fill:#f15a24"/><polygon points="235.88 516.84 223.96 515.48 241.21 364.83 275.06 315.6 284.94 322.4 252.79 369.17 235.88 516.84" style="fill:#f15a24"/><polygon points="332.82 412.44 321.18 409.56 339.83 333.95 322.15 257.35 333.85 254.65 352.17 334.05 332.82 412.44" style="fill:#f15a24"/><polygon points="474.52 520.53 462.92 517.47 500.94 373.44 498.14 335.13 473.14 300.51 482.86 293.49 509.86 330.87 513.06 374.56 474.52 520.53" style="fill:#f15a24"/><rect x="512.19" y="373.13" width="12" height="145.24" transform="translate(-62.52 85.21) rotate(-8.87)" style="fill:#f15a24"/><polygon points="596.53 521.95 549.09 437.74 544.13 352.4 489.48 289.95 498.52 282.05 555.87 347.6 560.91 434.26 606.99 516.05 596.53 521.95" style="fill:#f15a24"/><rect x="582.67" y="467" width="96.2" height="12" transform="matrix(0.21, -0.98, 0.98, 0.21, 34.41, 988.71)" style="fill:#f15a24"/></svg>