<svg id="Layer_1" data-name="Layer 1" xmlns="http://www.w3.org/2000/svg" viewBox="0 0 800 962"><title>Artboard 1 copy 3</title><path d="M800,400A398.81,398.81,0,0,1,679.56,686.09c-37.45,36.6-114.09,116.6-169.32,178.33C459.13,921.54,429.08,962,400,962c-29.25,0-61.64-42.15-114.71-102S158.48,722.75,122.52,688.11A398.86,398.86,0,0,1,0,400C0,179.09,179.09,0,400,0S800,179.09,800,400Z" style="fill:#fff"/><circle cx="400" cy="400.5" r="347" style="fill:#ed1c24"/><path d="M400,166c32.42,0,133.26,10.81,133.26,122.46s-57.62,97.24-57.62,126.06,0,46.82-75.64,46.82-75.64-21.61-75.64-46.82-57.62-25.21-57.62-126.06S349.58,166,400,166Z" style="fill:#fff"/><circle cx="344.17" cy="319.07" r="34.22" style="fill:#ed1c24"/><circle cx="454.03" cy="320.87" r="34.22" style="fill:#ed1c24"/><path d="M401.8,355.09c-2.44,0-4.71,3-6.09,4.63a72,72,0,0,0-7.33,11,102.47,102.47,0,0,0-6.25,13.08c-2.29,5.89-5,13,1,17.77,5.11,4,12.5,3.92,18.66,3.92a35.24,35.24,0,0,0,11.94-2.14,9.91,9.91,0,0,0,4.69-3.11c3.93-5.23.13-13.49-1.77-18.77-2-5.57-4.37-11-6.72-16.43C408.39,361.47,406.73,355.09,401.8,355.09Z" style="fill:#ed1c24"/><path d="M241.52,486.55c-10.8,3.6-21.61,3.6-25.21,3.6s-21.61-3.6-21.61-25.21c0-8.51,4.16-14,6.38-21.84,3.41-12.11,7.15-25,22.44-25,25.21,0,36,32.41,36,32.41L493.64,569.39s57.63-3.6,57.63,28.81c0,11.06-10,10.43-12.62,17.88-9,25.35-22.25,21.74-27,21.74-7.2,0-25.21-10.8-25.21-28.81Z" style="fill:#fff"/><path d="M558.48,486.55c10.8,3.6,21.61,3.6,25.21,3.6s21.61-3.6,21.61-25.21c0-8.51-4.16-14-6.38-21.84-3.41-12.11-7.15-25-22.44-25-25.21,0-36,32.41-36,32.41L306.36,569.39s-57.63-3.6-57.63,28.81c0,11.06,10,10.43,12.62,17.88,9,25.35,22.25,21.74,27,21.74,7.2,0,25.21-10.8,25.21-28.81Z" style="fill:#fff"/></svg>