<svg id="Layer_1" data-name="Layer 1" xmlns="http://www.w3.org/2000/svg" viewBox="0 0 800 962"><title>Artboard 1 copy 2</title><path d="M800,400A398.81,398.81,0,0,1,679.56,686.09c-37.45,36.6-114.09,116.6-169.32,178.33C459.13,921.54,429.08,962,400,962c-29.25,0-61.64-42.15-114.71-102S158.48,722.75,122.52,688.11A398.86,398.86,0,0,1,0,400C0,179.09,179.09,0,400,0S800,179.09,800,400Z" style="fill:#fff"/><circle cx="400" cy="400.5" r="347" style="fill:#2e3192"/><circle cx="414.43" cy="224.35" r="58.85" style="fill:#fff"/><path d="M312.83,342.61c-7.72-1.81-14.08-5.84-14.08-14.76A14.21,14.21,0,0,1,313,313.65H444.87s16.24,0,16.24,12.17c0,10.67-3.24,22-5.1,32.41-3.67,20.6-7.49,41.18-11.2,61.78-3.91,21.79-7.77,43.6-11.16,65.48-3.61,23.26-7.71,47.21-3.86,70.67,2.32,14.12,19.8,15.73,30.88,11.17a65.61,65.61,0,0,0,20.73-14.21s8.12-8.12,16.24,0,0,20.29,0,20.29S469.23,614,404.29,614c-21.29,0-44.15-5.31-61.81-17.57-19-13.2-24.76-34.67-22.13-56.8,3.43-28.83,9.09-57.49,13.86-86.12s9.68-57.25,14.7-85.84c.19-1.09.39-2.19.58-3.29,0,0,4.06-20.29-16.24-20.29C327.74,344.09,319.74,344.24,312.83,342.61Z" style="fill:#fff"/></svg>